Coordinates
version=1
nRows=32
nColumns=12
inDegrees=yes

Units are S.I. units (second, meters, Newtons, ...)
Angles are in degrees

endheader
time	SC_y	SC_z	SC_x	AC_y	AC_z	AC_x	GH_y	GH_z	GH_yy	EL_x	PS_y
       0.0              -21.57          32.67          77.86          39.97         0.2831         -16.11          56.74          68.44          93.87          95.11          50.88
   0.03784              -21.57          32.67          77.85          39.97         0.2828         -16.11          56.72          68.43          93.85           95.1          50.89
   0.07567              -21.57          32.67          77.84          39.98         0.2824          -16.1           56.7          68.42          93.83          95.09           50.9
    0.1135              -21.58          32.67          77.84          39.98          0.282          -16.1          56.68           68.4          93.82          95.09           50.9
    0.1513              -21.58          32.67          77.83          39.99         0.2816         -16.09          56.65          68.39           93.8          95.08          50.91
    0.1892              -21.59          32.67          77.82          39.99         0.2812         -16.08          56.63          68.38          93.78          95.07          50.92
     0.227              -21.59          32.67          77.81          39.99         0.2807         -16.08           56.6          68.36          93.75          95.06          50.93
    0.2649               -21.6          32.67           77.8           40.0         0.2802         -16.07          56.57          68.35          93.73          95.06          50.94
    0.3027               -21.6          32.66          77.79          40.01         0.2796         -16.06          56.54          68.33          93.71          95.05          50.95
    0.3405              -21.61          32.66          77.78          40.01         0.2791         -16.05          56.51          68.31          93.68          95.04          50.96
    0.3784              -21.61          32.66          77.77          40.02         0.2784         -16.05          56.47          68.29          93.65          95.03          50.97
    0.4162              -21.62          32.66          77.75          40.02         0.2778         -16.04          56.43          68.27          93.62          95.02          50.98
     0.454              -21.63          32.66          77.74          40.03         0.2771         -16.02          56.39          68.25          93.59           95.0           51.0
    0.4919              -21.64          32.65          77.73          40.04         0.2763         -16.01          56.34          68.22          93.55          94.99          51.01
    0.5297              -21.64          32.65          77.71          40.05         0.2754          -16.0           56.3           68.2          93.51          94.98          51.02
    0.5676              -21.65          32.65          77.69          40.06         0.2745         -15.99          56.24          68.17          93.47          94.96          51.04
    0.6054              -21.66          32.65          77.67          40.07         0.2735         -15.97          56.18          68.14          93.42          94.94          51.06
    0.6432              -21.67          32.64          77.65          40.08         0.2724         -15.96          56.12           68.1          93.37          94.93          51.08
    0.6811              -21.69          32.64          77.63          40.09         0.2713         -15.94          56.05          68.07          93.32          94.91           51.1
    0.7189               -21.7          32.63          77.61           40.1           0.27         -15.92          55.98          68.03          93.26          94.88          51.12
    0.7567              -21.71          32.63          77.58          40.12         0.2685          -15.9           55.9          67.98          93.19          94.86          51.15
    0.7946              -21.73          32.63          77.55          40.13          0.267         -15.88           55.8          67.93          93.12          94.83          51.18
    0.8324              -21.75          32.62          77.52          40.15         0.2652         -15.85           55.7          67.88          93.04           94.8          51.21
    0.8703              -21.77          32.61          77.48          40.17         0.2633         -15.83          55.59          67.82          92.95          94.77          51.25
    0.9081              -21.79          32.61          77.44          40.19         0.2612          -15.8          55.47          67.75          92.85          94.74          51.29
    0.9459              -21.81           32.6          77.39          40.21         0.2588         -15.76          55.33          67.67          92.74           94.7          51.33
    0.9838              -21.84          32.59          77.34          40.24         0.2561         -15.72          55.18          67.59          92.62          94.65          51.38
     1.022              -21.87          32.58          77.29          40.27         0.2532         -15.68           55.0           67.5          92.48           94.6          51.43
     1.059               -21.9          32.57          77.22          40.31         0.2498         -15.63          54.81          67.39          92.32          94.54          51.49
     1.097              -21.94          32.56          77.15          40.34         0.2459         -15.57          54.59          67.27          92.15          94.48          51.56
     1.135              -21.99          32.55          77.07          40.39         0.2415         -15.51          54.33          67.13          91.94           94.4          51.64
     1.173              -22.04          32.53          76.97          40.44         0.2365         -15.44          54.04          66.97          91.71          94.32          51.74
